<?xml version="1.0" encoding="UTF-8"?>
<svg version="1.1" xmlns="http://www.w3.org/2000/svg" width="287" height="241">
<path d="M0 0 C94.71 0 189.42 0 287 0 C287 79.53 287 159.06 287 241 C192.29 241 97.58 241 0 241 C0 161.47 0 81.94 0 0 Z " fill="#0292AD" transform="translate(0,0)"/>
<path d="M0 0 C35.64 0 71.28 0 108 0 C108 17.16 108 34.32 108 52 C108.66 52 109.32 52 110 52 C110.26844727 51.42523926 110.53689453 50.85047852 110.81347656 50.25830078 C112.03303936 47.93711644 113.40791957 45.9609624 114.984375 43.8671875 C115.58330566 43.06933838 116.18223633 42.27148926 116.79931641 41.44946289 C117.76490479 40.17510376 117.76490479 40.17510376 118.75 38.875 C119.41306152 37.99642334 120.07612305 37.11784668 120.75927734 36.21264648 C125.35271084 30.14084781 129.97202527 24.08879207 134.625 18.0625 C135.19186523 17.32435059 135.75873047 16.58620117 136.34277344 15.82568359 C146.54771423 2.68979597 146.54771423 2.68979597 155 1 C156.58773306 0.91571518 158.17859182 0.88220052 159.76855469 0.88647461 C161.17956451 0.88658791 161.17956451 0.88658791 162.61907959 0.88670349 C163.62650208 0.89186478 164.63392456 0.89702606 165.671875 0.90234375 C166.70942932 0.9037587 167.74698364 0.90517365 168.815979 0.90663147 C172.12734876 0.91222553 175.43865071 0.92477697 178.75 0.9375 C180.99609277 0.94251577 183.24218661 0.94707854 185.48828125 0.95117188 C190.99221359 0.96219302 196.4960953 0.97945361 202 1 C202 6.28 202 11.56 202 17 C199.6384375 17.03738281 197.276875 17.07476562 194.84375 17.11328125 C192.53343933 17.15961351 190.22328321 17.21080425 187.91308594 17.26245117 C186.31878202 17.29551798 184.72436617 17.32360559 183.12988281 17.34643555 C180.82569073 17.38032072 178.52250775 17.43264737 176.21875 17.48828125 C175.51633179 17.49467117 174.81391357 17.5010611 174.09020996 17.50764465 C167.79088819 17.69098465 162.27282586 19.08533668 157.34765625 23.234375 C154.58404232 26.49001337 151.97370285 29.81521571 149.4375 33.25 C148.91792725 33.94818848 148.39835449 34.64637695 147.86303711 35.36572266 C143.68422779 41.00922384 139.61842437 46.72936011 135.58740234 52.47900391 C130.32608787 59.98312782 124.9528173 67.40510217 119.57055664 74.82275391 C117.36951525 77.87403436 115.18679202 80.93849118 113 84 C104.75 84 96.5 84 88 84 C88 61.56 88 39.12 88 16 C58.96 16 29.92 16 0 16 C0 10.72 0 5.44 0 0 Z " fill="#0292AE" transform="translate(45,57)"/>
<path d="M0 0 C37.29 0 74.58 0 113 0 C114.125 9 114.125 9 114.20532227 12.39648438 C114.2352401 13.53676086 114.2352401 13.53676086 114.26576233 14.70007324 C114.28247482 15.48998657 114.29918732 16.2798999 114.31640625 17.09375 C114.33718735 17.92588013 114.35796844 18.75801025 114.37937927 19.61535645 C114.44416194 22.24349636 114.50342412 24.87172625 114.5625 27.5 C114.60575322 29.29427971 114.64936954 31.0885507 114.69335938 32.8828125 C114.79976894 37.25511885 114.90123163 41.62751463 115 46 C120.16952159 39.74927128 125.24890068 33.46643352 130.0625 26.9375 C147.36734728 3.72589483 147.36734728 3.72589483 158 1 C161.91314234 0.61508965 165.78991544 0.64922663 169.71875 0.70703125 C170.81723267 0.71127609 171.91571533 0.71552094 173.04748535 0.71989441 C176.5319136 0.73659339 180.01574861 0.77423004 183.5 0.8125 C185.87238744 0.82755815 188.24478401 0.84124457 190.6171875 0.85351562 C196.4118669 0.8839073 202.20527485 0.94264752 208 1 C208 8.26 208 15.52 208 23 C204.11541016 23.05607422 204.11541016 23.05607422 200.15234375 23.11328125 C197.62695164 23.15957486 195.10170315 23.21077988 192.57641602 23.26245117 C190.82976101 23.29557767 189.08300212 23.32364737 187.33618164 23.34643555 C184.8161213 23.38020881 182.29700248 23.43253347 179.77734375 23.48828125 C179.00414291 23.49467117 178.23094208 23.5010611 177.43431091 23.50764465 C171.09202566 23.67723878 166.33264281 24.98752385 161.41015625 29.234375 C158.59147602 32.4687763 155.98502168 35.79988659 153.4375 39.25 C152.91792725 39.94818848 152.39835449 40.64637695 151.86303711 41.36572266 C147.68484731 47.00838718 143.61882596 52.72716141 139.58959961 58.47680664 C135.24430655 64.67654648 130.81729737 70.81481941 126.36352539 76.93701172 C125.85168701 77.64229004 125.33984863 78.34756836 124.8125 79.07421875 C124.36519531 79.68869873 123.91789062 80.30317871 123.45703125 80.9362793 C121.85046857 83.12854289 121.85046857 83.12854289 120.24511719 86.20874023 C118 89 118 89 114.88378906 89.68115234 C113.09279785 89.634021 113.09279785 89.634021 111.265625 89.5859375 C109.97011719 89.56660156 108.67460937 89.54726562 107.33984375 89.52734375 C105.97653835 89.477215 104.61325711 89.42642536 103.25 89.375 C101.87115135 89.34489131 100.4922401 89.31751703 99.11328125 89.29296875 C95.74060269 89.22221326 92.37109173 89.12351802 89 89 C88.85368957 83.31568398 88.71153853 77.63128209 88.57275391 71.94677734 C88.52531152 70.0252014 88.47685737 68.10365008 88.42724609 66.18212891 C88.04779821 51.4456123 88 36.74830399 88 22 C58.96 22 29.92 22 0 22 C0 14.74 0 7.48 0 0 Z M3 3 C3 8.28 3 13.56 3 19 C32.04 19 61.08 19 91 19 C91 41.44 91 63.88 91 87 C99.25 87 107.5 87 116 87 C121.96408133 80.8143449 121.96408133 80.8143449 126.171875 74.1328125 C128.89031809 69.0856332 132.0739541 64.58598179 135.5 60 C136.57425648 58.51753584 137.64586386 57.03314851 138.71484375 55.546875 C140.99570179 52.38844669 143.28009156 49.23260539 145.56640625 46.078125 C146.15164062 45.26988281 146.736875 44.46164063 147.33984375 43.62890625 C148.45481628 42.08918228 149.57064563 40.55007825 150.6875 39.01171875 C152.91609468 35.93251542 155.08203397 32.87083048 157.12109375 29.66015625 C158.94743061 27.07442776 160.29913909 25.76476057 163 24.1875 C163.66 23.78917969 164.32 23.39085938 165 22.98046875 C169.45815397 20.79492843 173.93947736 20.7965873 178.828125 20.68359375 C179.57713074 20.66281265 180.32613647 20.64203156 181.09783936 20.62062073 C183.48180288 20.55542912 185.86587312 20.49638217 188.25 20.4375 C189.86980254 20.39428584 191.48959443 20.35067063 193.109375 20.30664062 C197.07280905 20.19902689 201.03632834 20.09972836 205 20 C205 14.72 205 9.44 205 4 C198.45298723 3.92556743 191.90622352 3.87126399 185.35888672 3.83520508 C183.13390815 3.82016488 180.90895899 3.79972754 178.68408203 3.77368164 C175.47681394 3.73708865 172.26993955 3.7202255 169.0625 3.70703125 C168.07572266 3.69154739 167.08894531 3.67606354 166.07226562 3.66011047 C157.80865955 3.65811926 151.20343142 5.12135556 145 11 C143.67016794 12.5985404 142.40359537 14.25081782 141.1875 15.9375 C140.42050781 16.98421875 139.65351563 18.0309375 138.86328125 19.109375 C138.42322754 19.71072266 137.98317383 20.31207031 137.52978516 20.93164062 C134.35871871 25.2191087 131.11012695 29.44830397 127.875 33.6875 C127.20621826 34.56591553 126.53743652 35.44433105 125.84838867 36.34936523 C125.19459229 37.20731689 124.5407959 38.06526855 123.8671875 38.94921875 C123.2287793 39.78759277 122.59037109 40.6259668 121.93261719 41.48974609 C120.61892586 43.19608443 119.29084837 44.89142285 117.95019531 46.57666016 C117.30920898 47.38280762 116.66822266 48.18895508 116.0078125 49.01953125 C115.42918457 49.73858643 114.85055664 50.4576416 114.25439453 51.19848633 C112.80952571 52.9076832 112.80952571 52.9076832 113 55 C112.34 55 111.68 55 111 55 C111 37.84 111 20.68 111 3 C75.36 3 39.72 3 3 3 Z " fill="#DAEFF2" transform="translate(42,54)"/>
<path d="M0 0 C1.09848267 0.00424484 2.19696533 0.00848969 3.32873535 0.01286316 C6.8131636 0.02956214 10.29699861 0.06719879 13.78125 0.10546875 C16.15363744 0.1205269 18.52603401 0.13421332 20.8984375 0.14648438 C26.6931169 0.17687605 32.48652485 0.23561627 38.28125 0.29296875 C38.28125 7.55296875 38.28125 14.81296875 38.28125 22.29296875 C34.39666016 22.34904297 34.39666016 22.34904297 30.43359375 22.40625 C27.90820164 22.45254361 25.38295315 22.50374863 22.85766602 22.55541992 C21.11101101 22.58854642 19.36425212 22.61661612 17.61743164 22.6394043 C15.0973713 22.67317756 12.57825248 22.72550222 10.05859375 22.78125 C9.28539291 22.78763992 8.51219208 22.79402985 7.71556091 22.8006134 C-0.37126231 23.01685686 -5.01848388 25.43864139 -10.71875 31.29296875 C-13.03125 32.10546875 -13.03125 32.10546875 -14.71875 32.29296875 C-12.43613866 26.69019547 -8.00908444 23.00596077 -2.71875 20.29296875 C1.140703 18.96550275 5.07982889 19.16654927 9.109375 19.1953125 C9.85838074 19.19672745 10.60738647 19.1981424 11.37908936 19.19960022 C13.76318412 19.20518216 16.14718378 19.2177313 18.53125 19.23046875 C20.15104031 19.23548609 21.77083209 19.24004859 23.390625 19.24414062 C27.35423248 19.25429331 31.31763521 19.2738721 35.28125 19.29296875 C35.28125 14.01296875 35.28125 8.73296875 35.28125 3.29296875 C28.73384317 3.3620616 22.18706178 3.45013452 15.64013672 3.55541992 C13.41527268 3.58857133 11.19032652 3.61663341 8.96533203 3.6394043 C5.7577837 3.6731302 2.55098134 3.72545587 -0.65625 3.78125 C-1.64302734 3.78763992 -2.62980469 3.79402985 -3.64648438 3.8006134 C-10.79480814 3.95108066 -16.75668887 4.76151563 -22.37890625 9.56640625 C-25.02281595 12.64728934 -27.63227449 15.73799893 -30.15625 18.91796875 C-30.66559082 19.55677979 -31.17493164 20.19559082 -31.69970703 20.85375977 C-37.13922699 27.73324929 -42.32281994 34.79939612 -47.4921875 41.8828125 C-48.02682617 42.61226074 -48.56146484 43.34170898 -49.11230469 44.09326172 C-50.21438048 45.6023351 -51.30838584 47.11732567 -52.39550781 48.63720703 C-52.92756836 49.37052246 -53.45962891 50.10383789 -54.0078125 50.859375 C-54.4817041 51.5201001 -54.9555957 52.1808252 -55.44384766 52.86157227 C-55.86456543 53.33393311 -56.2852832 53.80629395 -56.71875 54.29296875 C-57.37875 54.29296875 -58.03875 54.29296875 -58.71875 54.29296875 C-58.71875 45.71296875 -58.71875 37.13296875 -58.71875 28.29296875 C-58.38875 28.29296875 -58.05875 28.29296875 -57.71875 28.29296875 C-57.38875 21.36296875 -57.05875 14.43296875 -56.71875 7.29296875 C-56.38875 7.29296875 -56.05875 7.29296875 -55.71875 7.29296875 C-55.38875 19.83296875 -55.05875 32.37296875 -54.71875 45.29296875 C-49.55902153 38.98663395 -44.47844833 32.77106555 -39.65625 26.23046875 C-19.88267224 -0.29253214 -19.88267224 -0.29253214 0 0 Z " fill="#D5ECF1" transform="translate(211.71875,54.70703125)"/>
<path d="M0 0 C0.99 0 1.98 0 3 0 C3 19.47 3 38.94 3 59 C12.384375 58.9175 21.76875 58.835 31.4375 58.75 C34.38357178 58.73420898 37.32964355 58.71841797 40.36499023 58.70214844 C42.72121109 58.67276184 45.07741458 58.64193305 47.43359375 58.609375 C48.63987427 58.60824707 49.84615479 58.60711914 51.08898926 58.60595703 C58.90355063 58.47430957 65.94364445 57.78553126 71.8747406 52.25042725 C77.52363033 46.14909464 78.49668796 40.42791737 78.39453125 32.24609375 C77.83592695 27.6500524 76.13460683 24.38157586 73 21 C72.34 20.67 71.68 20.34 71 20 C71.28875 19.443125 71.5775 18.88625 71.875 18.3125 C74.03448412 13.87356041 75.2668931 10.14131217 75.625 5.1875 C75.69976562 4.21167969 75.77453125 3.23585938 75.8515625 2.23046875 C75.92503906 1.12638672 75.92503906 1.12638672 76 0 C76.99 0 77.98 0 79 0 C79.31706655 6.59968142 79.30137846 11.11493405 76 17 C76.12337724 20.94807174 78.83979382 23.82719717 81 27 C83.16171859 33.48515578 82.5115701 40.48849021 80.09765625 46.83203125 C76.81085717 53.32375186 72.44590802 57.28365648 65.82843018 60.14701843 C60.13251949 61.86475814 54.23455148 61.48388727 48.33984375 61.390625 C46.94023961 61.38314951 45.54062489 61.37746277 44.14100647 61.37347412 C40.48623932 61.35832027 36.83212457 61.31913015 33.1776123 61.2746582 C29.43685892 61.23348158 25.6959953 61.21519532 21.95507812 61.1953125 C14.63614566 61.15475316 7.31899641 61.0764386 0 61 C0 40.87 0 20.74 0 0 Z " fill="#E8F5F7" transform="translate(42,82)"/>
<path d="M0 0 C5.09031755 -0.04936158 10.18049643 -0.08570105 15.27099609 -0.10986328 C17.00344265 -0.11993376 18.73587216 -0.13359089 20.46826172 -0.15087891 C22.95544639 -0.17508162 25.44240675 -0.18647239 27.9296875 -0.1953125 C28.70682098 -0.20563507 29.48395447 -0.21595764 30.28463745 -0.22659302 C32.19125493 -0.22699271 34.09731036 -0.1223214 36 0 C38 2 38 2 38.265625 4.09375 C38.26046875 4.8878125 38.2553125 5.681875 38.25 6.5 C38.25773437 7.69109375 38.25773437 7.69109375 38.265625 8.90625 C38 11 38 11 36 13 C33.27514272 13.17517747 30.65340638 13.23149133 27.9296875 13.1953125 C27.13345978 13.1924826 26.33723206 13.18965271 25.51687622 13.18673706 C22.96943237 13.1755264 20.42233789 13.15042062 17.875 13.125 C16.14974465 13.11497133 14.42448381 13.10584528 12.69921875 13.09765625 C8.46601086 13.07558422 4.2330647 13.04104867 0 13 C0 8.71 0 4.42 0 0 Z " fill="#139DB3" transform="translate(64,111)"/>
<path d="M0 0 C4.50261508 -0.04591902 9.00441739 -0.08574101 13.50708008 -0.10986328 C15.03868361 -0.11991935 16.57026795 -0.133566 18.10180664 -0.15087891 C20.30359636 -0.17514498 22.50513219 -0.18648688 24.70703125 -0.1953125 C25.39150833 -0.20563507 26.07598541 -0.21595764 26.78120422 -0.22659302 C30.43061661 -0.22745382 31.87148502 -0.08567666 35 2 C35.3984375 4.3125 35.3984375 4.3125 35.375 7 C35.38660156 8.3303125 35.38660156 8.3303125 35.3984375 9.6875 C35.26695313 10.450625 35.13546875 11.21375 35 12 C31.40555817 14.39629455 28.85138348 14.25781331 24.70703125 14.1953125 C24.00100266 14.1924826 23.29497406 14.18965271 22.56755066 14.18673706 C20.31569367 14.17555464 18.06423648 14.1504542 15.8125 14.125 C14.28451096 14.11496767 12.75651567 14.10584226 11.22851562 14.09765625 C7.48539967 14.07732428 3.7431466 14.03817373 0 14 C0 9.38 0 4.76 0 0 Z " fill="#0497AE" transform="translate(64,83)"/>
<path d="M0 0 C13.71650221 -0.41565158 13.71650221 -0.41565158 18 3 C18.59587577 7.08600528 18.31567384 8.52648925 16 12 C16.99 12.33 17.98 12.66 19 13 C19.3125 16.3125 19.3125 16.3125 19 20 C15.04782356 23.29348037 11.70138767 23.32807629 6.6875 23.1875 C3.3771875 23.0946875 3.3771875 23.0946875 0 23 C0 15.41 0 7.82 0 0 Z " fill="#E8F6F7" transform="translate(41,165)"/>
<path d="M0 0 C0.495 0.99 0.495 0.99 1 2 C-5.56931158 11.76406173 -12.18468193 21.40598155 -19.44921875 30.66796875 C-22.55076374 34.66729695 -25.4618561 38.79993986 -28.375 42.9375 C-28.87523682 43.64793457 -29.37547363 44.35836914 -29.89086914 45.09033203 C-31.98983115 48.08540437 -33.9922948 50.985858 -35.74560547 54.20385742 C-38 57 -38 57 -41.11621094 57.68115234 C-42.31020508 57.64973145 -43.50419922 57.61831055 -44.734375 57.5859375 C-46.48572754 57.56345947 -46.48572754 57.56345947 -48.27246094 57.54052734 C-50.48884277 57.45859131 -50.48884277 57.45859131 -52.75 57.375 C-57.4525 57.25125 -62.155 57.1275 -67 57 C-67 39.18 -67 21.36 -67 3 C-66.67 3 -66.34 3 -66 3 C-65.1062543 14.68821891 -64.87464307 26.28252015 -64.9375 38 C-64.94253373 39.66145696 -64.94709327 41.32291542 -64.95117188 42.984375 C-64.96200913 46.98962171 -64.97916626 50.99479334 -65 55 C-50.90538371 56.57666148 -50.90538371 56.57666148 -37.84765625 52.57421875 C-34.16231246 48.73845276 -31.76962499 44.11661525 -29.33349609 39.42578125 C-27.1072559 35.37599682 -24.32451133 31.75793682 -21.5625 28.0625 C-20.48186622 26.57734304 -19.40375507 25.09034741 -18.328125 23.6015625 C-17.78736328 22.85551758 -17.24660156 22.10947266 -16.68945312 21.34082031 C-14.90362009 18.8664609 -13.1304341 16.38338997 -11.359375 13.8984375 C-10.76568115 13.06820068 -10.1719873 12.23796387 -9.56030273 11.38256836 C-8.41587269 9.78158123 -7.27463163 8.17830856 -6.13696289 6.57250977 C-5.62383545 5.85635498 -5.11070801 5.1402002 -4.58203125 4.40234375 C-4.13061768 3.76804443 -3.6792041 3.13374512 -3.21411133 2.48022461 C-2 1 -2 1 0 0 Z " fill="#E5F3F6" transform="translate(198,86)"/>
<path d="M0 0 C4.50261508 -0.04591902 9.00441739 -0.08574101 13.50708008 -0.10986328 C15.03868361 -0.11991935 16.57026795 -0.133566 18.10180664 -0.15087891 C20.30359636 -0.17514498 22.50513219 -0.18648688 24.70703125 -0.1953125 C25.39150833 -0.20563507 26.07598541 -0.21595764 26.78120422 -0.22659302 C30.43061661 -0.22745382 31.87148502 -0.08567666 35 2 C35.3984375 4.3125 35.3984375 4.3125 35.375 7 C35.38660156 8.3303125 35.38660156 8.3303125 35.3984375 9.6875 C35.26695313 10.450625 35.13546875 11.21375 35 12 C31.40555817 14.39629455 28.85138348 14.25781331 24.70703125 14.1953125 C24.00100266 14.1924826 23.29497406 14.18965271 22.56755066 14.18673706 C20.31569367 14.17555464 18.06423648 14.1504542 15.8125 14.125 C14.28451096 14.11496767 12.75651567 14.10584226 11.22851562 14.09765625 C7.48539967 14.07732428 3.7431466 14.03817373 0 14 C0 9.38 0 4.76 0 0 Z M2 3 C2 5.64 2 8.28 2 11 C6.25414623 11.02465622 10.50825498 11.04283899 14.76245117 11.05493164 C16.21070073 11.05997101 17.65894517 11.06680253 19.10717773 11.07543945 C21.18474588 11.08752247 23.26224697 11.09323211 25.33984375 11.09765625 C26.59144287 11.10289307 27.84304199 11.10812988 29.13256836 11.11352539 C31.89732294 11.32887035 31.89732294 11.32887035 33 10 C33.16666667 7 33.16666667 7 33 4 C31.89732294 2.67112965 31.89732294 2.67112965 29.13256836 2.88647461 C27.88096924 2.89171143 26.62937012 2.89694824 25.33984375 2.90234375 C24.67537735 2.9037587 24.01091095 2.90517365 23.3263092 2.90663147 C21.19666101 2.91224482 19.06711661 2.92479946 16.9375 2.9375 C15.49674631 2.94251329 14.05599097 2.94707649 12.61523438 2.95117188 C9.07678898 2.96221855 5.53840461 2.97949208 2 3 Z " fill="#DFF1F4" transform="translate(64,83)"/>
<path d="M0 0 C3.0625 2.0625 3.0625 2.0625 5 5 C5.06886551 8.92533388 4.55357459 11.13642364 2.4375 14.4375 C-1.04320935 16.66872394 -3.97775799 16.79126072 -8 16 C-10.5 14.5 -10.5 14.5 -12 12 C-12.791013 7.97901723 -12.62153384 5.03588973 -10.5 1.5 C-7.00997997 -0.59401202 -3.90160249 -0.87901716 0 0 Z " fill="#EDF7F6" transform="translate(75,172)"/>
<path d="M0 0 C1.65 0 3.3 0 5 0 C5.98163422 1.93625098 6.96022454 3.87404539 7.9375 5.8125 C8.48277344 6.89144531 9.02804688 7.97039062 9.58984375 9.08203125 C11 12 11 12 12 15 C14.64 10.05 17.28 5.1 20 0 C21.32 0 22.64 0 24 0 C23.33673121 5.1692853 21.08075343 9.62251365 18.9375 14.3125 C18.56044922 15.14845703 18.18339844 15.98441406 17.79492188 16.84570312 C16.86788193 18.89927262 15.93613122 20.95056287 15 23 C13.35 23 11.7 23 10 23 C8.5184527 19.73023984 7.04017409 16.45901215 5.5625 13.1875 C5.14162109 12.25873047 4.72074219 11.32996094 4.28710938 10.37304688 C3.88427734 9.48037109 3.48144531 8.58769531 3.06640625 7.66796875 C2.69459229 6.84578857 2.32277832 6.0236084 1.93969727 5.17651367 C1 3 1 3 0 0 Z " fill="#E9F6F5" transform="translate(98,165)"/>
<path d="M0 0 C5.09031755 -0.04936158 10.18049643 -0.08570105 15.27099609 -0.10986328 C17.00344265 -0.11993376 18.73587216 -0.13359089 20.46826172 -0.15087891 C22.95544639 -0.17508162 25.44240675 -0.18647239 27.9296875 -0.1953125 C28.70682098 -0.20563507 29.48395447 -0.21595764 30.28463745 -0.22659302 C32.19125493 -0.22699271 34.09731036 -0.1223214 36 0 C38 2 38 2 38.265625 4.09375 C38.26046875 4.8878125 38.2553125 5.681875 38.25 6.5 C38.25773437 7.69109375 38.25773437 7.69109375 38.265625 8.90625 C38 11 38 11 36 13 C33.27514272 13.17517747 30.65340638 13.23149133 27.9296875 13.1953125 C27.13345978 13.1924826 26.33723206 13.18965271 25.51687622 13.18673706 C22.96943237 13.1755264 20.42233789 13.15042062 17.875 13.125 C16.14974465 13.11497133 14.42448381 13.10584528 12.69921875 13.09765625 C8.46601086 13.07558422 4.2330647 13.04104867 0 13 C0 8.71 0 4.42 0 0 Z M2 2 C2 4.97 2 7.94 2 11 C12.89 11 23.78 11 35 11 C36.36623674 8.26752652 36.128426 6.01801098 36 3 C34.86492192 1.6378818 34.86492192 1.6378818 31.85717773 1.88647461 C30.46597303 1.88663367 29.07476239 1.89232494 27.68359375 1.90234375 C26.95253922 1.9037587 26.22148468 1.90517365 25.46827698 1.90663147 C23.12464368 1.91224592 20.78110461 1.92480078 18.4375 1.9375 C16.85221492 1.94251314 15.26692834 1.94707637 13.68164062 1.95117188 C9.7877239 1.96222003 5.89387795 1.97949428 2 2 Z " fill="#FDFEFE" transform="translate(64,111)"/>
<path d="M0 0 C12.31297186 -0.61564859 12.31297186 -0.61564859 15.40625 2.15625 C17.21242693 5.37903629 17.42621112 7.15611916 17.25 10.8125 C17.21390625 11.78832031 17.1778125 12.76414063 17.140625 13.76953125 C17.07101563 14.87361328 17.07101563 14.87361328 17 16 C15.35 16 13.7 16 12 16 C11.67 12.37 11.34 8.74 11 5 C9.35 5 7.7 5 6 5 C5.67 8.63 5.34 12.26 5 16 C3.35 16 1.7 16 0 16 C0 10.72 0 5.44 0 0 Z " fill="#E0F3F4" transform="translate(82,172)"/>
<path d="M0 0 C0.33 0 0.66 0 1 0 C1.8937457 11.68821891 2.12535693 23.28252015 2.0625 35 C2.05746627 36.66145696 2.05290673 38.32291542 2.04882812 39.984375 C2.03885482 43.98965295 2.01925618 47.99471386 2 52 C10.91 51.67 19.82 51.34 29 51 C29 51.99 29 52.98 29 54 C19.43 54 9.86 54 0 54 C0 36.18 0 18.36 0 0 Z " fill="#FDFEFE" transform="translate(131,89)"/>
<path d="M0 0 C1.53113434 0.00022659 1.53113434 0.00022659 3.09320068 0.00045776 C4.18811829 0.01078033 5.28303589 0.02110291 6.41113281 0.03173828 C8.10064056 0.03598312 8.10064056 0.03598312 9.82427979 0.04031372 C13.42104728 0.05150705 17.0175656 0.07661041 20.61425781 0.10205078 C23.0530563 0.11208166 25.49185869 0.12120732 27.93066406 0.12939453 C33.90861363 0.15144362 39.88641792 0.18491294 45.86425781 0.22705078 C45.86425781 0.55705078 45.86425781 0.88705078 45.86425781 1.22705078 C44.55344238 1.23639648 43.24262695 1.24574219 41.89208984 1.25537109 C36.99022471 1.29549302 32.08897261 1.36131256 27.1875 1.43457031 C25.0733228 1.46265175 22.95904312 1.48392954 20.84472656 1.49804688 C17.7908123 1.51965476 14.73811376 1.56639561 11.68457031 1.61767578 C10.28550949 1.61951874 10.28550949 1.61951874 8.85818481 1.62139893 C0.98080298 1.79395488 -6.14076495 3.42739815 -12.01074219 8.91455078 C-12.71199219 9.67767578 -13.41324219 10.44080078 -14.13574219 11.22705078 C-16.44824219 12.03955078 -16.44824219 12.03955078 -18.13574219 12.22705078 C-16.78465858 9.13694867 -15.34556286 7.25794925 -12.76074219 5.10205078 C-12.17550781 4.60447266 -11.59027344 4.10689453 -10.98730469 3.59423828 C-7.30256842 0.87344146 -4.59696532 -0.02275725 0 0 Z " fill="#EEF7F9" transform="translate(201.1357421875,55.77294921875)"/>
<path d="M0 0 C0.33 0 0.66 0 1 0 C1 13.2 1 26.4 1 40 C2.32 39.34 3.64 38.68 5 38 C3.7580393 41.43927579 2.44259716 44.25207819 0 47 C-0.66 47 -1.32 47 -2 47 C-2 38.42 -2 29.84 -2 21 C-1.67 21 -1.34 21 -1 21 C-0.67 14.07 -0.34 7.14 0 0 Z " fill="#B9E0E8" transform="translate(155,62)"/>
<path d="M0 0 C0.99 0 1.98 0 3 0 C3 7.92 3 15.84 3 24 C2.01 24 1.02 24 0 24 C0 16.08 0 8.16 0 0 Z " fill="#FFFFFF" transform="translate(140,164)"/>
<path d="M0 0 C2.5 0.125 2.5 0.125 3.5 1.125 C3.625 4.125 3.625 4.125 3.5 7.125 C2.5 8.125 2.5 8.125 0.0625 8.3125 C-2.5 8.125 -2.5 8.125 -4.5 6.125 C-3.77607362 0.18880368 -3.77607362 0.18880368 0 0 Z " fill="#109CB4" transform="translate(71.5,175.875)"/>
<path d="M0 0 C6.75 -0.125 6.75 -0.125 9 1 C9 2.32 9 3.64 9 5 C6.04335481 6.4783226 3.25770263 6.06032783 0 6 C0 4.02 0 2.04 0 0 Z " fill="#1CA3B8" transform="translate(46,169)"/>
<path d="M0 0 C1.37478516 0.01740234 1.37478516 0.01740234 2.77734375 0.03515625 C3.69644531 0.04417969 4.61554688 0.05320313 5.5625 0.0625 C6.27277344 0.07410156 6.98304688 0.08570313 7.71484375 0.09765625 C7.71484375 1.41765625 7.71484375 2.73765625 7.71484375 4.09765625 C4.24159194 5.25540685 1.35416927 5.16632277 -2.28515625 5.09765625 C-2.84765625 3.16015625 -2.84765625 3.16015625 -3.28515625 1.09765625 C-2.28515625 0.09765625 -2.28515625 0.09765625 0 0 Z " fill="#89CEDC" transform="translate(190.28515625,167.90234375)"/>
<path d="M0 0 C0.66 0 1.32 0 2 0 C2 0.99 2 1.98 2 3 C3.32 3.33 4.64 3.66 6 4 C6 5.32 6 6.64 6 8 C5.34 8 4.68 8 4 8 C4 6.68 4 5.36 4 4 C3.34 4 2.68 4 2 4 C2 5.32 2 6.64 2 8 C0.68 8 -0.64 8 -2 8 C-2 6.68 -2 5.36 -2 4 C-2.66 4 -3.32 4 -4 4 C-4 5.32 -4 6.64 -4 8 C-4.66 8 -5.32 8 -6 8 C-6 6.35 -6 4.7 -6 3 C-4.35 3 -2.7 3 -1 3 C-0.67 2.01 -0.34 1.02 0 0 Z " fill="#BDE3E5" transform="translate(167,165)"/>
<path d="M0 0 C2.97 0 5.94 0 9 0 C9.33 1.32 9.66 2.64 10 4 C6.78548731 5.60725635 3.56387464 5.05748185 0 5 C0 3.35 0 1.7 0 0 Z " fill="#0B9CB3" transform="translate(46,179)"/>
<path d="M0 0 C1.65 0.99 3.3 1.98 5 3 C5.33 2.01 5.66 1.02 6 0 C6.66 0 7.32 0 8 0 C8 2.31 8 4.62 8 7 C7.34 7 6.68 7 6 7 C5.67 6.34 5.34 5.68 5 5 C3.35 5.66 1.7 6.32 0 7 C0 4.69 0 2.38 0 0 Z " fill="#CEE6E6" transform="translate(173,181)"/>
<path d="M0 0 C1.65 0 3.3 0 5 0 C5 2.64 5 5.28 5 8 C3.35 8 1.7 8 0 8 C0 5.36 0 2.72 0 0 Z " fill="#99D1D9" transform="translate(195,180)"/>
<path d="M0 0 C0.33 0 0.66 0 1 0 C1.22084624 6.09781001 1.01167675 11.21642935 -1 17 C-1.99 16.67 -2.98 16.34 -4 16 C-3.71861942 13.70704764 -3.4245814 11.41564544 -3.125 9.125 C-2.96257812 7.84882812 -2.80015625 6.57265625 -2.6328125 5.2578125 C-2 2 -2 2 0 0 Z " fill="#CFEAEF" transform="translate(123,112)"/>
<path d="M0 0 C0.66 0 1.32 0 2 0 C2 0.99 2 1.98 2 3 C3.32 3.33 4.64 3.66 6 4 C5.67 5.32 5.34 6.64 5 8 C3.35 8 1.7 8 0 8 C0 5.36 0 2.72 0 0 Z " fill="#A5DBE5" transform="translate(188,180)"/>
<path d="M0 0 C0.66 0 1.32 0 2 0 C2 2.64 2 5.28 2 8 C0.35 8 -1.3 8 -3 8 C-3.33 6.68 -3.66 5.36 -4 4 C-2.68 3.67 -1.36 3.34 0 3 C0 2.01 0 1.02 0 0 Z " fill="#AED7DC" transform="translate(204,165)"/>
<path d="M0 0 C0.99 0 1.98 0 3 0 C3.99 2.31 4.98 4.62 6 7 C3.36 7 0.72 7 -2 7 C-1.34 4.69 -0.68 2.38 0 0 Z " fill="#B8DFE3" transform="translate(156,181)"/>
<path d="M0 0 C2.475 0.495 2.475 0.495 5 1 C5 1.66 5 2.32 5 3 C5.66 3.33 6.32 3.66 7 4 C6.34 4 5.68 4 5 4 C5 4.99 5 5.98 5 7 C5.66 7.33 6.32 7.66 7 8 C6.01 8 5.02 8 4 8 C4 6.68 4 5.36 4 4 C3.34 4 2.68 4 2 4 C2 5.32 2 6.64 2 8 C1.34 8 0.68 8 0 8 C0 5.36 0 2.72 0 0 Z " fill="#B0DFE3" transform="translate(201,180)"/>
<path d="M0 0 C1.98 0 3.96 0 6 0 C6 0.66 6 1.32 6 2 C4.68 2 3.36 2 2 2 C2 2.66 2 3.32 2 4 C2.99 4.33 3.98 4.66 5 5 C4.01 5 3.02 5 2 5 C2 5.66 2 6.32 2 7 C3.32 7.33 4.64 7.66 6 8 C4.02 8 2.04 8 0 8 C0 5.36 0 2.72 0 0 Z " fill="#C7E8EA" transform="translate(154,165)"/>
<path d="M0 0 C0.99 0 1.98 0 3 0 C3 3.63 3 7.26 3 11 C2.01 10.67 1.02 10.34 0 10 C0 6.7 0 3.4 0 0 Z " fill="#D3ECF0" transform="translate(118,82)"/>
<path d="M0 0 C1.2065625 0.0309375 1.2065625 0.0309375 2.4375 0.0625 C2.4375 1.7125 2.4375 3.3625 2.4375 5.0625 C0.7875 5.0625 -0.8625 5.0625 -2.5625 5.0625 C-3.125 3.125 -3.125 3.125 -3.5625 1.0625 C-2.5625 0.0625 -2.5625 0.0625 0 0 Z " fill="#AED8DE" transform="translate(177.5625,167.9375)"/>
<path d="M0 0 C2.97 0 5.94 0 9 0 C7.68 0.33 6.36 0.66 5 1 C5 2.65 5 4.3 5 6 C3.35 5.67 1.7 5.34 0 5 C0 3.35 0 1.7 0 0 Z " fill="#2CA2BD" transform="translate(156,167)"/>
<path d="M0 0 C1.26950234 3.0006419 0.98068499 4.05184556 -0.1875 7.1875 C-2 10 -2 10 -4.1875 10.875 C-5.0846875 10.936875 -5.0846875 10.936875 -6 11 C-5.33333333 9.66666667 -4.66666667 8.33333333 -4 7 C-3.2265625 5.4221875 -3.2265625 5.4221875 -2.4375 3.8125 C-1 1 -1 1 0 0 Z " fill="#E2F2F5" transform="translate(119,91)"/>
<path d="M0 0 C1.32 0 2.64 0 4 0 C4 1.65 4 3.3 4 5 C2.35 4.67 0.7 4.34 -1 4 C-0.67 2.68 -0.34 1.36 0 0 Z " fill="#ABDBE2" transform="translate(183,183)"/>
<path d="M0 0 C0.66 0 1.32 0 2 0 C2 0.66 2 1.32 2 2 C2.66 2 3.32 2 4 2 C4 1.34 4 0.68 4 0 C4.66 0.33 5.32 0.66 6 1 C5.01 2.98 4.02 4.96 3 7 C1.25372522 4.38058783 0.61277612 2.96175123 0 0 Z " fill="#C6E7E6" transform="translate(209,183)"/>
<path d="M0 0 C2.475 0.495 2.475 0.495 5 1 C4.67 2.32 4.34 3.64 4 5 C2.68 4.67 1.36 4.34 0 4 C0 2.68 0 1.36 0 0 Z " fill="#CFE7E8" transform="translate(194,168)"/>
</svg>
