<?xml version="1.0" encoding="UTF-8" standalone="no" ?>
<!DOCTYPE svg PUBLIC "-//W3C//DTD SVG 1.1//EN" "http://www.w3.org/Graphics/SVG/1.1/DTD/svg11.dtd">
<svg xmlns="http://www.w3.org/2000/svg" xmlns:xlink="http://www.w3.org/1999/xlink" version="1.1" width="1280" height="1024" viewBox="0 0 1280 1024" xml:space="preserve">
<desc>Created with Fabric.js 5.3.0</desc>
<defs>
</defs>
<g transform="matrix(1 0 0 1 640 512)" id="background-logo"  >
<rect style="stroke: none; stroke-width: 0; stroke-dasharray: none; stroke-linecap: butt; stroke-dashoffset: 0; stroke-linejoin: miter; stroke-miterlimit: 4; fill: rgb(255,255,255); fill-opacity: 0; fill-rule: nonzero; opacity: 1;"  paint-order="stroke"  x="-640" y="-512" rx="0" ry="0" width="1280" height="1024" />
</g>
<g transform="matrix(3.5626330924331047 0 0 3.5626330924331047 639.7039473684212 496.02985383883845)" id="shape-099cd364-311c-4bc5-b1d7-1508efb9973a"  >
<g style=""  paint-order="stroke"   >
		<g transform="matrix(1 0 0 1 44.94513999999998 0)" id="path-04_00000090986033092240208710000005522852841209840013_"  >
<polygon style="stroke: none; stroke-width: 1; stroke-dasharray: none; stroke-linecap: butt; stroke-dashoffset: 0; stroke-linejoin: miter; stroke-miterlimit: 4; fill: rgb(12,59,208); fill-rule: nonzero; opacity: 1;"  paint-order="stroke"  points="-44.94513999999998,-124.27362 -65.61564999999997,-20.122659999999996 -44.94513999999998,39.54266000000001 65.61565000000002,124.27362 " />
</g>
		<g transform="matrix(1 0 0 1 -55.280395 0)" id="path-03_00000010278456432599164910000012583547205616471688_"  >
<polygon style="stroke: none; stroke-width: 1; stroke-dasharray: none; stroke-linecap: butt; stroke-dashoffset: 0; stroke-linejoin: miter; stroke-miterlimit: 4; fill: rgb(37,0,189); fill-rule: nonzero; opacity: 1;"  paint-order="stroke"  points="-55.280395,124.27362 55.280395,39.54266000000001 55.280395,-124.27362 " />
</g>
		<g transform="matrix(1 0 0 1 -55.280395 64.07544000000001)" id="path-02_00000027595370022357565730000004338497686826613632_"  >
<polygon style="stroke: none; stroke-width: 1; stroke-dasharray: none; stroke-linecap: butt; stroke-dashoffset: 0; stroke-linejoin: miter; stroke-miterlimit: 4; fill: rgb(83,120,233); fill-rule: nonzero; opacity: 1;"  paint-order="stroke"  points="-55.280395,60.19817999999998 55.280395,5.00945999999999 55.280395,-60.19818000000001 " />
</g>
		<g transform="matrix(1 0 0 1 55.280395 64.07544000000001)" id="path-01_00000098922525435124359060000016976683525472730300_"  >
<polygon style="stroke: none; stroke-width: 1; stroke-dasharray: none; stroke-linecap: butt; stroke-dashoffset: 0; stroke-linejoin: miter; stroke-miterlimit: 4; fill: rgb(7,41,155); fill-rule: nonzero; opacity: 1;"  paint-order="stroke"  points="-55.280395,-60.19818000000001 -55.280395,5.00945999999999 55.280395,60.19817999999998 " />
</g>
</g>
</g>
<g transform="matrix(1.9211538461538462 0 0 1.9211538461538462 642.6880771385535 503.1157413779259)" id="text-logo"  >
<g style=""  paint-order="stroke"   >
		<g transform="matrix(1 0 0 1 0 0)" id="text-logo-path-0"  >
<path style="stroke: none; stroke-width: 0; stroke-dasharray: none; stroke-linecap: butt; stroke-dashoffset: 0; stroke-linejoin: miter; stroke-miterlimit: 4; fill: rgb(255,255,255); fill-rule: nonzero; opacity: 1;"  paint-order="stroke"  transform=" translate(-51.135, 46.225)" d="M 27.48 0 L 12.76 0 L 12.76 -92.45 L 27.48 -92.45 L 27.48 -51.3 L 74.92 -51.3 L 74.92 -92.45 L 89.51 -92.45 L 89.51 0 L 74.92 0 L 74.92 -39.39 L 27.48 -39.39 L 27.48 0 Z" stroke-linecap="round" />
</g>
</g>
</g>
</svg>