<?xml version="1.0" encoding="UTF-8"?>
<svg version="1.1" xmlns="http://www.w3.org/2000/svg" width="512" height="512">
<path d="M0 0 C3.44932531 1.28863777 4.38924656 2.35846326 6.34814453 5.43603516 C7.23034668 6.79970215 7.23034668 6.79970215 8.13037109 8.19091797 C9.00773926 9.62322754 9.00773926 9.62322754 9.90283203 11.08447266 C10.45938477 11.98004883 11.0159375 12.875625 11.58935547 13.79833984 C13.34615613 16.66985655 15.0654385 19.56127054 16.77783203 22.45947266 C18.09350534 24.66954456 19.40994131 26.87916259 20.72705078 29.08837891 C21.06563614 29.65709213 21.4042215 30.22580536 21.75306702 30.81175232 C25.65785146 37.36503719 29.62453078 43.88050531 33.59033203 50.39697266 C38.38424946 58.2790505 43.1658929 66.16797795 47.90283203 74.08447266 C52.60219503 81.93594637 57.33961056 89.76400086 62.09033203 97.58447266 C62.449487 98.17582001 62.80864197 98.76716736 63.17868042 99.37643433 C66.82830899 105.38517172 70.4804909 111.39234306 74.13842773 117.39602661 C81.76915728 129.92142742 89.35677543 142.4704597 96.84033203 155.08447266 C97.18589142 155.66609161 97.53145081 156.24771057 97.88748169 156.84695435 C98.86168121 158.48765751 99.83348212 160.12978418 100.80517578 161.77197266 C101.35681396 162.70396484 101.90845215 163.63595703 102.47680664 164.59619141 C105.60132351 170.04818181 106.72687255 173.76682871 105.90283203 180.08447266 C104.45971284 183.72663062 103.2112936 185.48479985 99.61505604 187.1329689 C93.16391102 189.42734525 86.76485936 191.20586887 80.06762695 192.61474609 C79.04441345 192.83656555 78.02119995 193.05838501 76.96697998 193.28692627 C73.6073027 194.01331577 70.2453799 194.72866502 66.88330078 195.44384766 C64.50126802 195.95639732 62.1193788 196.46961449 59.73762512 196.98345947 C53.46225789 198.33534397 47.18490357 199.67777118 40.90710449 201.01831055 C34.65764295 202.35466836 28.41022618 203.70051393 22.16259766 205.04541016 C11.37343389 207.36704295 0.58065959 209.67131551 -10.21380806 211.96814728 C-16.4933928 213.30693433 -22.76800664 214.66568094 -29.03729343 216.05189133 C-32.58187947 216.83470665 -36.12858417 217.60761385 -39.6756649 218.37903595 C-41.26964847 218.72856783 -42.86257184 219.08297856 -44.45426369 219.44280243 C-59.43780954 222.82806645 -59.43780954 222.82806645 -67.09716797 221.08447266 C-69.22216797 219.02197266 -69.22216797 219.02197266 -70.09716797 216.08447266 C-69.84612975 208.68721307 -67.03297508 202.98901142 -63.84716797 196.39697266 C-62.8436081 194.25349704 -61.84228198 192.10897408 -60.84326172 189.96337891 C-60.36614746 188.9438916 -59.8890332 187.9244043 -59.39746094 186.87402344 C-54.80270484 177.01677914 -50.40368624 167.45305776 -53.93701172 156.47509766 C-54.8920146 154.26958156 -55.93567475 152.18702972 -57.09716797 150.08447266 C-57.38849609 149.38322266 -57.67982422 148.68197266 -57.97998047 147.95947266 C-59.38885046 145.5949356 -60.63165004 145.26103592 -63.09716797 144.08447266 C-64.58119387 143.19347822 -66.05446319 142.28442685 -67.51904297 141.36181641 C-68.37159668 140.8277417 -69.22415039 140.29366699 -70.10253906 139.7434082 C-71.0082666 139.17533447 -71.91399414 138.60726074 -72.84716797 138.02197266 C-81.19600885 132.82205467 -89.60833263 127.80790708 -98.24267578 123.09765625 C-100.07170911 122.09838185 -101.8930683 121.08606083 -103.71435547 120.07275391 C-146.58355574 96.45390177 -202.72655644 75.72446661 -251.95996094 89.43847656 C-280.10832234 97.9466516 -301.26107197 116.84360761 -315.19873047 142.48681641 C-315.83450779 143.68446597 -316.46737598 144.88366488 -317.09716797 146.08447266 C-317.68240234 147.19951172 -318.26763672 148.31455078 -318.87060547 149.46337891 C-332.55335509 177.16939908 -337.74803967 207.6100216 -341.44946289 237.99926758 C-341.54581528 238.77276047 -341.64216766 239.54625336 -341.74143982 240.34318542 C-341.92142373 241.79632325 -342.09512497 243.25025846 -342.2613678 244.70503235 C-342.69534238 248.20048073 -343.252562 251.05584213 -345.09716797 254.08447266 C-345.75716797 253.75447266 -346.41716797 253.42447266 -347.09716797 253.08447266 C-347.59646914 250.71342921 -347.94067171 248.45887613 -348.20263672 246.05712891 C-348.28652145 245.3080275 -348.37040619 244.55892609 -348.45683289 243.78712463 C-349.42747417 234.13140735 -349.4326243 224.45368181 -349.4128418 214.75805664 C-349.4096962 211.55075571 -349.4331846 208.34439391 -349.45849609 205.13720703 C-349.51677963 186.37772013 -348.02764755 167.63613319 -343.40966797 149.39697266 C-343.15693115 148.37571289 -342.90419434 147.35445312 -342.64379883 146.30224609 C-331.32265775 102.37880485 -304.64408208 72.43490413 -266.53466797 49.33447266 C-242.70344797 35.27606075 -216.66934706 26.24608253 -189.09716797 23.08447266 C-188.15099609 22.97361328 -187.20482422 22.86275391 -186.22998047 22.74853516 C-137.6149417 18.07644052 -89.66455086 30.75822108 -46.41357422 52.42431641 C-45.65463867 52.7979834 -44.89570313 53.17165039 -44.11376953 53.55664062 C-42.70488408 54.2535926 -41.3035013 54.96606235 -39.91259766 55.69824219 C-35.00702188 58.13107857 -30.55562483 58.82337861 -25.09716797 58.08447266 C-19.9876367 55.41863026 -18.75213143 51.31773739 -17.09716797 46.08447266 C-16.29142268 42.91337433 -15.64442945 39.71971801 -15.01123047 36.51025391 C-14.63436235 34.69043986 -14.25673568 32.87078277 -13.87841797 31.05126953 C-13.29556059 28.21550103 -12.71858551 25.37892931 -12.15478516 22.53930664 C-11.60299904 19.77584932 -11.02768693 17.01812827 -10.44873047 14.26025391 C-10.20626083 12.99137077 -10.20626083 12.99137077 -9.95889282 11.69685364 C-8.69859541 5.81005685 -6.94533472 0.18942817 0 0 Z " fill="#FFFFFF" transform="translate(349.09716796875,31.91552734375)"/>
<path d="M0 0 C0.66 0 1.32 0 2 0 C4.63101088 12.29662498 4.35445091 24.67578544 4.3125 37.1875 C4.30976578 38.86265686 4.30976578 38.86265686 4.30697632 40.57165527 C4.26204972 56.87576684 3.98484907 72.92258369 1 89 C0.82839355 89.93473145 0.65678711 90.86946289 0.47998047 91.83251953 C-5.5846174 123.56462009 -17.12660496 152.76767865 -40 176 C-40.53061035 176.55324951 -41.0612207 177.10649902 -41.60791016 177.67651367 C-45.78879962 181.97521636 -50.21195094 185.70909996 -55 189.3125 C-56.11193726 190.15325073 -56.11193726 190.15325073 -57.24633789 191.01098633 C-103.84209367 225.93667976 -157.76076729 239.75092627 -215.62841797 231.50024414 C-244.45326886 226.86965096 -272.07704422 217.20422681 -298.265625 204.4609375 C-299.11439209 204.0489209 -299.96315918 203.6369043 -300.83764648 203.21240234 C-302.43415582 202.43029074 -304.02531496 201.63711514 -305.60961914 200.83056641 C-311.05155075 198.14689072 -316.23061578 196.21779118 -322.390625 197.49609375 C-323.00421875 197.80675781 -323.6178125 198.11742187 -324.25 198.4375 C-324.87390625 198.72496094 -325.4978125 199.01242187 -326.140625 199.30859375 C-333.07665118 205.61804614 -335.25348974 218.09162271 -338.14282227 226.81762695 C-338.83086113 228.88700121 -339.53711545 230.94944033 -340.24609375 233.01171875 C-340.65529053 234.23334717 -341.0644873 235.45497559 -341.48608398 236.71362305 C-343.15771101 240.34235572 -344.97067837 242.42273582 -348 245 C-350.4375 245.75 -350.4375 245.75 -353 245 C-358.41966299 240.11423168 -361.53134999 233.67389568 -364.75 227.25 C-365.81086859 225.17561279 -366.87207084 223.1013962 -367.93359375 221.02734375 C-368.45421387 220.00237793 -368.97483398 218.97741211 -369.51123047 217.92138672 C-371.57745165 213.86687661 -373.68919396 209.83733372 -375.8125 205.8125 C-376.20912842 205.0582373 -376.60575684 204.30397461 -377.0144043 203.52685547 C-379.44006619 198.92354082 -381.89195388 194.33497403 -384.359375 189.75390625 C-391.29526949 176.87375669 -398.13007788 163.95120286 -404.8125 150.9375 C-405.17598541 150.22971405 -405.53947083 149.5219281 -405.91397095 148.79269409 C-407.32958052 146.03586819 -408.74506293 143.27897703 -410.16035461 140.52198792 C-415.46851495 130.18701217 -420.87004728 119.90550138 -426.421875 109.69921875 C-427.01452148 108.60939697 -427.60716797 107.5195752 -428.21777344 106.39672852 C-429.37950355 104.26407849 -430.54408068 102.13297612 -431.71191406 100.00366211 C-432.5042041 98.55165405 -432.5042041 98.55165405 -433.3125 97.0703125 C-433.78300781 96.21195801 -434.25351562 95.35360352 -434.73828125 94.46923828 C-437.64314948 88.78428524 -438.70801018 84.34961511 -438 78 C-436.26227082 72.97989349 -433.37399087 69.90062354 -429 67 C-426.03756039 65.66949133 -422.99439238 64.74670865 -419.8828125 63.828125 C-418.97801147 63.54842361 -418.07321045 63.26872223 -417.14099121 62.98054504 C-414.13969076 62.05657959 -411.13257812 61.15330122 -408.125 60.25 C-406.00141408 59.60075748 -403.87821175 58.95025915 -401.75537109 58.29858398 C-396.04098651 56.54851302 -390.32123681 54.81664916 -384.60009766 53.08880615 C-378.49112557 51.24122116 -372.38650731 49.37934663 -366.28125 47.51953125 C-359.11115001 45.33677817 -351.94035231 43.15641976 -344.76611328 40.98730469 C-343.10622879 40.48512924 -343.10622879 40.48512924 -341.41281128 39.97280884 C-339.22078331 39.31071348 -337.02818321 38.65050909 -334.83499146 37.99227905 C-329.18490283 36.29151706 -323.55578873 34.54278 -317.94433594 32.71826172 C-316.20487198 32.16047279 -316.20487198 32.16047279 -314.43026733 31.59141541 C-312.23459952 30.88549153 -310.04282082 30.16729563 -307.85610962 29.43409729 C-301.24557434 27.32350711 -294.95826846 26.04936119 -288 27 C-285.34436198 28.8968843 -284.42757473 30.14485055 -283 33 C-282.59423541 38.86172326 -283.77740676 43.73519416 -285.37109375 49.30078125 C-285.61287857 50.17719772 -285.85466339 51.0536142 -286.10377502 51.95658875 C-286.87323827 54.74432184 -287.65401462 57.52867775 -288.4375 60.3125 C-289.4665415 63.97269692 -290.48431024 67.63578138 -291.49609375 71.30078125 C-291.73154404 72.12403397 -291.96699432 72.94728668 -292.20957947 73.79548645 C-295.29521798 84.9731892 -295.85846195 93.83428496 -290.25 104.25 C-284.33513567 111.47927862 -276.77726317 115.71343489 -268.75 120.25 C-267.57725133 120.9169683 -266.40456328 121.58404321 -265.23193359 122.2512207 C-261.8291902 124.18165873 -258.41543669 126.09210574 -255 128 C-253.70594238 128.72872314 -253.70594238 128.72872314 -252.38574219 129.47216797 C-222.32303169 146.30451509 -188.94226163 158.93464418 -155 165 C-153.72253906 165.24363281 -152.44507813 165.48726562 -151.12890625 165.73828125 C-120.26248818 170.79665746 -86.80726256 166.27408541 -60.97265625 147.83984375 C-58.21764552 145.64897267 -55.59579643 143.37682587 -53 141 C-51.73929687 139.86111328 -51.73929687 139.86111328 -50.453125 138.69921875 C-16.92627294 106.89035755 -8.27306315 58.09217826 -2.66186523 14.31640625 C-2.55879059 13.51981598 -2.45571594 12.72322571 -2.34951782 11.90249634 C-2.15418269 10.38776611 -1.96205218 8.87261827 -1.77352905 7.35702515 C-1.11137452 2.22274904 -1.11137452 2.22274904 0 0 Z " fill="#FFFFFF" transform="translate(508,235)"/>
</svg>
