<?xml version="1.0" encoding="UTF-8"?>
<svg version="1.1" xmlns="http://www.w3.org/2000/svg" width="512" height="512">
<path d="M0 0 C81.84 0 163.68 0 248 0 C248 66 248 132 248 200 C166.16 200 84.32 200 0 200 C0 134 0 68 0 0 Z M26 11 C23.74395103 14.773854 23.74691805 18.30467327 23.73930359 22.63511658 C23.73547804 23.28852368 23.73165249 23.94193079 23.72771102 24.61513811 C23.71742154 26.79681212 23.72136535 28.97822096 23.7253418 31.15991211 C23.72099308 32.72725161 23.7158094 34.29458899 23.70985413 35.86192322 C23.69647032 40.11398449 23.69588474 44.36595685 23.69841743 48.61803508 C23.69948751 52.16926175 23.69460283 55.72047046 23.689812 59.27169329 C23.67871906 67.65013668 23.67827829 76.02853524 23.68432617 84.40698242 C23.69036732 93.04744522 23.6780509 101.68774523 23.6567561 110.32818025 C23.63913797 117.74998002 23.63313906 125.17172798 23.63639385 132.59354788 C23.63820644 137.02477639 23.6355729 141.45588876 23.62167931 145.88709831 C23.60910204 150.05434803 23.61104403 154.22134402 23.62409019 158.38858986 C23.62645572 159.91639161 23.62372213 161.44421121 23.61546707 162.97199249 C23.60499538 165.06092192 23.61310255 167.1490006 23.6257782 169.23789978 C23.62561046 170.40576995 23.62544271 171.57364012 23.62526989 172.77690029 C24.06025909 176.51829585 24.92092777 178.85965859 27 182 C30.9341719 184.41233031 35.05332087 184.28504859 39.54624939 184.26069641 C40.29766175 184.26452196 41.04907412 184.26834751 41.82325655 184.27228898 C44.33658827 184.28259296 46.84969043 184.27863182 49.36303711 184.2746582 C51.16682649 184.27900611 52.97061402 184.28418952 54.7743988 184.29014587 C59.67106444 184.30353835 64.56765291 184.30411429 69.4643333 184.30158257 C73.55238993 184.30051308 77.64043093 184.30539565 81.72848421 184.310188 C91.37263092 184.32128393 101.01673867 184.32172002 110.66088867 184.31567383 C120.61010089 184.3096323 130.55917175 184.32194941 140.50835985 184.3432439 C149.05116806 184.36085597 157.59393126 184.3668619 166.13675696 184.36360615 C171.23867579 184.36179261 176.34049377 184.36443668 181.44239616 184.37832069 C186.23999049 184.39088806 191.03736431 184.38896525 195.83495522 184.37590981 C197.5949651 184.37354214 199.35499045 184.37628552 201.1149826 184.38453293 C203.51916689 184.39498609 205.92260931 184.38691164 208.32676697 184.3742218 C209.02181381 184.38159609 209.71686065 184.38897037 210.43296951 184.39656812 C214.99754464 184.34594574 218.20562959 183.56614935 222 181 C224.25604897 177.226146 224.25308195 173.69532673 224.26069641 169.36488342 C224.26452196 168.71147632 224.26834751 168.05806921 224.27228898 167.38486189 C224.28257846 165.20318788 224.27863465 163.02177904 224.2746582 160.84008789 C224.27900692 159.27274839 224.2841906 157.70541101 224.29014587 156.13807678 C224.30352968 151.88601551 224.30411526 147.63404315 224.30158257 143.38196492 C224.30051249 139.83073825 224.30539717 136.27952954 224.310188 132.72830671 C224.32128094 124.34986332 224.32172171 115.97146476 224.31567383 107.59301758 C224.30963268 98.95255478 224.3219491 90.31225477 224.3432439 81.67181975 C224.36086203 74.25001998 224.36686094 66.82827202 224.36360615 59.40645212 C224.36179356 54.97522361 224.3644271 50.54411124 224.37832069 46.11290169 C224.39089796 41.94565197 224.38895597 37.77865598 224.37590981 33.61141014 C224.37354428 32.08360839 224.37627787 30.55578879 224.38453293 29.02800751 C224.39500462 26.93907808 224.38689745 24.8509994 224.3742218 22.76210022 C224.37438954 21.59423005 224.37455729 20.42635988 224.37473011 19.22309971 C223.93974091 15.48170415 223.07907223 13.14034141 221 10 C217.0658281 7.58766969 212.94667913 7.71495141 208.45375061 7.73930359 C207.70233825 7.73547804 206.95092588 7.73165249 206.17674345 7.72771102 C203.66341173 7.71740704 201.15030957 7.72136818 198.63696289 7.7253418 C196.83317351 7.72099389 195.02938598 7.71581048 193.2256012 7.70985413 C188.32893556 7.69646165 183.43234709 7.69588571 178.5356667 7.69841743 C174.44761007 7.69948692 170.35956907 7.69460435 166.27151579 7.689812 C156.62736908 7.67871607 146.98326133 7.67827998 137.33911133 7.68432617 C127.38989911 7.6903677 117.44082825 7.67805059 107.49164015 7.6567561 C98.94883194 7.63914403 90.40606874 7.6331381 81.86324304 7.63639385 C76.76132421 7.63820739 71.65950623 7.63556332 66.55760384 7.62167931 C61.76000951 7.60911194 56.96263569 7.61103475 52.16504478 7.62409019 C50.4050349 7.62645786 48.64500955 7.62371448 46.8850174 7.61546707 C44.48083311 7.60501391 42.07739069 7.61308836 39.67323303 7.6257782 C38.97818619 7.61840391 38.28313935 7.61102963 37.56703049 7.60343188 C33.00245536 7.65405426 29.79437041 8.43385065 26 11 Z " fill="#FFFFFF" transform="translate(152,160)"/>
<path d="M0 0 C50.43538767 0 50.43538767 0 57.2421875 5.96484375 C57.78101563 6.61582031 58.31984375 7.26679688 58.875 7.9375 C59.70644531 8.91009766 59.70644531 8.91009766 60.5546875 9.90234375 C63.69549977 14.46076589 64.2522238 18.3653236 64.26742554 23.84944153 C64.27195665 24.52593882 64.27648776 25.20243611 64.28115618 25.89943331 C64.29378545 28.15934395 64.29218079 30.41901313 64.29052734 32.67895508 C64.29651355 34.30216277 64.30331932 35.92536762 64.31088257 37.54856873 C64.32854116 41.95364323 64.33323791 46.35864002 64.33451414 50.7637465 C64.33593647 53.51753626 64.34020764 56.27130631 64.34550858 59.02509117 C64.36400895 68.63693876 64.37217925 78.2487309 64.37060547 87.8605957 C64.36940432 96.81234033 64.39050132 105.76384375 64.4220928 114.71552736 C64.44826844 122.4074208 64.45897221 130.09923553 64.45769465 137.79117316 C64.45718536 142.38235593 64.46285013 146.97332435 64.48405075 151.56446266 C64.50345469 155.8844315 64.503543 160.203982 64.48901749 164.52396584 C64.4869309 166.10575982 64.49162138 167.68758013 64.5037384 169.26932907 C64.57080747 178.6341251 64.48727873 185.87932805 58.03515625 193.2421875 C57.38417969 193.78101563 56.73320312 194.31984375 56.0625 194.875 C55.41410156 195.42929687 54.76570313 195.98359375 54.09765625 196.5546875 C39.10944022 206.88176372 13.45648285 200 0 200 C0 134 0 68 0 0 Z M16 24 C16 29.28 16 34.56 16 40 C26.56 40 37.12 40 48 40 C48 34.72 48 29.44 48 24 C37.44 24 26.88 24 16 24 Z M16 56 C16 61.28 16 66.56 16 72 C26.56 72 37.12 72 48 72 C48 66.72 48 61.44 48 56 C37.44 56 26.88 56 16 56 Z " fill="#FFFFFF" transform="translate(416,160)"/>
<path d="M0 0 C55.44 0 110.88 0 168 0 C168 15.84 168 31.68 168 48 C112.56 48 57.12 48 0 48 C0 32.16 0 16.32 0 0 Z " fill="#FFFFFF" transform="translate(192,232)"/>
<path d="M0 0 C11.88 0 23.76 0 36 0 C36 66 36 132 36 200 C24.12 200 12.24 200 0 200 C-4.45660209 195.54339791 -4.45660209 195.54339791 -4.53497362 190.47708511 C-4.52605073 189.74440289 -4.51712785 189.01172066 -4.50793457 188.25683594 C-4.51417453 187.47219845 -4.5204145 186.68756096 -4.52684355 185.87914658 C-4.54281156 183.2472513 -4.53015481 180.61627731 -4.51757812 177.984375 C-4.52299756 176.098668 -4.53011922 174.21296523 -4.53881836 172.32727051 C-4.55707583 167.20332996 -4.54997415 162.07971105 -4.53730202 156.95576477 C-4.52718692 151.59777956 -4.53656355 146.23982221 -4.54284668 140.88183594 C-4.55012743 131.88341315 -4.54052414 122.88512162 -4.52148438 113.88671875 C-4.49971486 103.47789365 -4.50676592 93.06938193 -4.52879 82.66056442 C-4.54693179 73.7296823 -4.54950828 64.79889462 -4.53903532 55.86800003 C-4.53279369 50.53137321 -4.53198318 45.19489377 -4.54518127 39.85827637 C-4.55672137 34.84147953 -4.54874768 29.82508739 -4.52560425 24.80833435 C-4.52030731 22.96525241 -4.52184771 21.12213651 -4.53065491 19.27906799 C-4.54155536 16.76663753 -4.52791444 14.255511 -4.50793457 11.74316406 C-4.51685746 11.01048183 -4.52578034 10.27779961 -4.53497362 9.52291489 C-4.45504729 4.35609226 -3.9776106 3.9776106 0 0 Z " fill="#FFFFFF" transform="translate(100,160)"/>
<path d="M0 0 C42.24 0 84.48 0 128 0 C128 15.84 128 31.68 128 48 C85.76 48 43.52 48 0 48 C0 32.16 0 16.32 0 0 Z " fill="#FFFFFF" transform="translate(168,64)"/>
<path d="M0 0 C84.48 0 168.96 0 256 0 C256 5.28 256 10.56 256 16 C171.52 16 87.04 16 0 16 C0 10.72 0 5.44 0 0 Z " fill="#FFFFFF" transform="translate(144,408)"/>
<path d="M0 0 C58.08 0 116.16 0 176 0 C176 5.28 176 10.56 176 16 C117.92 16 59.84 16 0 16 C0 10.72 0 5.44 0 0 Z " fill="#FFFFFF" transform="translate(184,376)"/>
<path d="M0 0 C15.84 0 31.68 0 48 0 C48 10.56 48 21.12 48 32 C32.16 32 16.32 32 0 32 C0 21.44 0 10.88 0 0 Z " fill="#FFFFFF" transform="translate(32,240)"/>
<path d="M0 0 C55.44 0 110.88 0 168 0 C168 2.64 168 5.28 168 8 C112.56 8 57.12 8 0 8 C0 5.36 0 2.72 0 0 Z " fill="#FFFFFF" transform="translate(192,320)"/>
<path d="M0 0 C55.44 0 110.88 0 168 0 C168 2.64 168 5.28 168 8 C112.56 8 57.12 8 0 8 C0 5.36 0 2.72 0 0 Z " fill="#FFFFFF" transform="translate(192,296)"/>
<path d="M0 0 C55.44 0 110.88 0 168 0 C168 2.64 168 5.28 168 8 C112.56 8 57.12 8 0 8 C0 5.36 0 2.72 0 0 Z " fill="#FFFFFF" transform="translate(192,208)"/>
<path d="M0 0 C55.44 0 110.88 0 168 0 C168 2.64 168 5.28 168 8 C112.56 8 57.12 8 0 8 C0 5.36 0 2.72 0 0 Z " fill="#FFFFFF" transform="translate(192,184)"/>
<path d="M0 0 C21.12 0 42.24 0 64 0 C64 5.28 64 10.56 64 16 C42.88 16 21.76 16 0 16 C0 10.72 0 5.44 0 0 Z " fill="#FFFFFF" transform="translate(200,128)"/>
<path d="M0 0 C5.28 0 10.56 0 16 0 C16 2.64 16 5.28 16 8 C10.72 8 5.44 8 0 8 C0 5.36 0 2.72 0 0 Z " fill="#FFFFFF" transform="translate(256,40)"/>
<path d="M0 0 C5.28 0 10.56 0 16 0 C16 2.64 16 5.28 16 8 C10.72 8 5.44 8 0 8 C0 5.36 0 2.72 0 0 Z " fill="#FFFFFF" transform="translate(192,40)"/>
</svg>
